<svg width="24" height="24" viewBox="0 0 24 24" fill="none" xmlns="http://www.w3.org/2000/svg">
<path d="M3.25 23.25H20.75C22.1288 23.25 23.25 22.1288 23.25 20.75V9.915L20.75 12.415V20.75H7.1975C7.165 20.75 7.13125 20.7625 7.09875 20.7625C7.0575 20.7625 7.01625 20.7513 6.97375 20.75H3.25V3.25H11.8088L14.3088 0.75H3.25C1.87125 0.75 0.75 1.87125 0.75 3.25V20.75C0.75 22.1288 1.87125 23.25 3.25 23.25Z" fill="#181818"/>
<path d="M5 19.1686L10.5163 19.1498L22.5562 7.22484C23.0287 6.75234 23.2887 6.12484 23.2887 5.45734C23.2887 4.78984 23.0287 4.16234 22.5562 3.68984L20.5737 1.70734C19.6287 0.762344 17.98 0.767344 17.0425 1.70359L5 13.6311V19.1686ZM18.8062 3.47484L20.7925 5.45359L18.7962 7.43109L16.8137 5.44984L18.8062 3.47484ZM7.5 14.6736L15.0375 7.20734L17.02 9.18984L9.48375 16.6536L7.5 16.6598V14.6736Z" fill="#181818"/>
</svg>
